<mxfile host="Electron" modified="2023-05-09T05:18:28.924Z" agent="Mozilla/5.0 (Macintosh; Intel Mac OS X 10_15_7) AppleWebKit/537.36 (KHTML, like Gecko) draw.io/21.2.8 Chrome/112.0.5615.165 Electron/24.2.0 Safari/537.36" etag="d0xcJZPnMUMMnQJsVZsi" version="21.2.8" type="device">
  <diagram name="第 1 页" id="3ySeLXEO0sQinPLX6sgi">
    <mxGraphModel dx="624" dy="317" grid="1" gridSize="10" guides="1" tooltips="1" connect="1" arrows="1" fold="1" page="1" pageScale="1" pageWidth="1600" pageHeight="900" math="0" shadow="0">
      <root>
        <mxCell id="0" />
        <mxCell id="1" parent="0" />
        <mxCell id="MsWeomLdyjUQBx7QA1Gm-3" value="楫" style="rounded=0;whiteSpace=wrap;html=1;" vertex="1" parent="1">
          <mxGeometry x="490" y="257.5" width="40" height="35" as="geometry" />
        </mxCell>
        <mxCell id="MsWeomLdyjUQBx7QA1Gm-5" value="" style="endArrow=classic;html=1;rounded=0;exitX=1;exitY=0.5;exitDx=0;exitDy=0;entryX=0;entryY=0.5;entryDx=0;entryDy=0;" edge="1" parent="1" source="MsWeomLdyjUQBx7QA1Gm-3" target="MsWeomLdyjUQBx7QA1Gm-6">
          <mxGeometry width="50" height="50" relative="1" as="geometry">
            <mxPoint x="610" y="340" as="sourcePoint" />
            <mxPoint x="610" y="280" as="targetPoint" />
          </mxGeometry>
        </mxCell>
        <mxCell id="MsWeomLdyjUQBx7QA1Gm-6" value="⿰木⿱口耳" style="rounded=0;whiteSpace=wrap;html=1;" vertex="1" parent="1">
          <mxGeometry x="610" y="245" width="120" height="60" as="geometry" />
        </mxCell>
      </root>
    </mxGraphModel>
  </diagram>
</mxfile>
